<svg xmlns="http://www.w3.org/2000/svg" width="26px" height="10px">
    <!-- Line -->
    <rect x="0" y="0" width="26px" height="1px" fill="white" />
    <rect x="0" y="9" width="26px" height="1px" fill="white" />
    <!-- Y -->
    <rect x="0" y="2" width="1px" height="2px" fill="white" />
    <rect x="2" y="2" width="1px" height="2px" fill="white" />
    <rect x="1" y="4" width="1px" height="4px" fill="white" />
    <!-- A -->
    <rect x="4" y="2" width="1px" height="6px" fill="white" />
    <rect x="6" y="2" width="1px" height="6px" fill="white" />
    <rect x="4" y="2" width="3px" height="1px" fill="white" />
    <rect x="4" y="5" width="3px" height="1px" fill="white" />
    <!-- K -->
     <rect x="8" y="2" width="1px" height="6px" fill="white" />
     <rect x="8" y="4" width="2px" height="1px" fill="white" />
     <rect x="10" y="2" width="1px" height="2px" fill="white" />
     <rect x="10" y="5" width="1px" height="3px" fill="white" />
     <!-- K -->
     <rect x="12" y="2" width="1px" height="6px" fill="white" />
     <rect x="12" y="4" width="2px" height="1px" fill="white" />
     <rect x="14" y="2" width="1px" height="2px" fill="white" />
     <rect x="14" y="5" width="1px" height="3px" fill="white" />
     <!-- A -->
    <rect x="16" y="2" width="1px" height="6px" fill="white" />
    <rect x="18" y="2" width="1px" height="6px" fill="white" />
    <rect x="16" y="2" width="3px" height="1px" fill="white" />
    <rect x="16" y="5" width="3px" height="1px" fill="white" />
    <!-- Shape -->
    <rect x="21" y="2" width="5px" height="1px" fill="#ff9900" />
    <rect x="21" y="7" width="5px" height="1px" fill="#ff9900" />
    <rect x="21" y="4" width="1px" height="4px" fill="#ff9900" />
    <rect x="25" y="2" width="1px" height="4px" fill="#ff9900" />
    <rect x="23" y="4" width="1px" height="2px" fill="#ff9900" />
</svg>